HIERARCHY
ROOT Hips
{
	OFFSET	0.00	0.00	0.00
	CHANNELS 6 Xposition Yposition Zposition Zrotation Xrotation Yrotation
	JOINT Spine
	{
		OFFSET	 0.00	0.01	 0.00
		CHANNELS 3 Zrotation Xrotation Yrotation
		JOINT Spine1
		{
			OFFSET	 0.00	 2.45913012437421	 0.00
			CHANNELS 3 Zrotation Xrotation Yrotation
            JOINT Neck
            {
                OFFSET	 0.00	 2.48462964506057	 0.00
                CHANNELS 3 Zrotation Xrotation Yrotation
                JOINT Head
                {
                    OFFSET	 0.00	 0.927524780924562	 0.00
                    CHANNELS 3 Zrotation Xrotation Yrotation
                    End Site 
                    {
                        OFFSET	 0.00	 1.14999962169752	 0.00
                    }
                }
            }
			JOINT LeftShoulder
			{
				OFFSET	 0.00	 2.48462964506057	 0.00
				CHANNELS 3 Zrotation Xrotation Yrotation
				JOINT LeftUpArm
				{
					OFFSET	 0.00	 1.24881979654096	 0.00
					CHANNELS 3 Zrotation Xrotation Yrotation
					JOINT LeftForeArm
					{
						OFFSET	 0.00	2.59758046908119	 0.00
						CHANNELS 3 Zrotation Xrotation Yrotation
						JOINT LeftHand
						{
							OFFSET	 0.00	2.45542024364365	 0.00
							CHANNELS 3 Zrotation Xrotation Yrotation
							JOINT LeftHandThumb 
							{
								OFFSET	 0.00	0.00	 0.00
								CHANNELS 3 Zrotation Xrotation Yrotation
								End Site
								{
									OFFSET	 0.00	0.00	1.00000003353624
								}
							}
							JOINT L_Wrist_End 
							{
								OFFSET	 0.00	0.99999967115358	 0.00
								CHANNELS 3 Zrotation Xrotation Yrotation
								End Site 
								{
									OFFSET	 0.00	 0.00	 0.00
								}
							}
						}
					}
				}
			}
			JOINT RightShoulder
			{
				OFFSET	 0.00	 2.48462964506057	 0.00
				CHANNELS 3 Zrotation Xrotation Yrotation
				JOINT RightUpArm
				{
					OFFSET	 0.00	 1.24881979654096	 0.00
					CHANNELS 3 Zrotation Xrotation Yrotation
					JOINT RightForeArm
					{
						OFFSET	 0.00	2.59758046908119	 0.00
						CHANNELS 3 Zrotation Xrotation Yrotation
						JOINT RightHand
						{
							OFFSET	 0.00	2.45542024364365	 0.00
							CHANNELS 3 Zrotation Xrotation Yrotation
							JOINT RightHandThumb 
							{
								OFFSET	 0.00	0.00	 0.00
								CHANNELS 3 Zrotation Xrotation Yrotation
								End Site
								{
									OFFSET	 0.00	0.00	1.00000003353624
								}
							}
							JOINT R_Wrist_End 
							{
								OFFSET	 0.00	0.99999967115358	 0.00
								CHANNELS 3 Zrotation Xrotation Yrotation
								End Site 
								{
									OFFSET	 0.00	 0.00	 0.00
								}
							}
						}
					}
				}
			}
		}
	}
	JOINT LeftUpLeg
	{
		OFFSET	 1.2719394002717	 0.00	 0.00
		CHANNELS 3 Zrotation Xrotation Yrotation
		JOINT LeftLowLeg
		{
			OFFSET	 0.00	-4.3429100912261	 0.00
			CHANNELS 3 Zrotation Xrotation Yrotation
			JOINT LeftFoot
			{
				OFFSET	 0.00	-4.48767017425826	 0.00
				CHANNELS 3 Zrotation Xrotation Yrotation
				JOINT LeftToeBase
                {
                    OFFSET	 0.00	0.00	 1.51507020887566
                    CHANNELS 3 Zrotation Xrotation Yrotation
                    End Site 
                    {
                        OFFSET	 0.00	0.00	 0.75000010571191
                    }
                }
			}
		}
	}
	JOINT RightUpLeg
	{
		OFFSET	 -1.2719393604653	 0.00	 0.00
		CHANNELS 3 Zrotation Xrotation Yrotation
		JOINT RightLowLeg
		{
			OFFSET	 0.00	-4.3429100912261	 0.00
			CHANNELS 3 Zrotation Xrotation Yrotation
			JOINT RightFoot
			{
				OFFSET	 0.00	-4.48767017425826	 0.00
				CHANNELS 3 Zrotation Xrotation Yrotation
				JOINT RightToeBase
                {
                    OFFSET	 0.00	0.00	 1.51507020887566
                    CHANNELS 3 Zrotation Xrotation Yrotation
                    End Site 
                    {
                        OFFSET	 0.00	0.00	 0.749999965609858
                    }
                }   
			}
		}
	}
}
MOTION 
Frames:	10 
Frame Time: 0.02 
  5.772979736328125 7.044080200195313 9.480830078125 -110.147 79.5668 1565.92 3.21835 -6.12588 2.08636 11.4942 -1.49725 4.65866 -53.9793 34.6886 422.799 169.395 -82.955 -199.988 -108.8913 -7.4382 -9.48193 24.1193 24.4881 -25.3802 0.0 16.4082 0.0 42.0394 -4.6384 28.5426 0.0 0.0 0.0 0.0 0.0 0.0 113.8891 -4.99065 -12.4288 33.7481 -3.93594 -20.0112 0.0 95.5039 0.0 -52.5332 -17.7828 6.56577 0.0 0.0 0.0 0.0 0.0 0.0 1.90952 -4.65653 7.61954 0.0 7.29792 0.0 -12.2318 -2.7385006 15.6047 0.0 -29.0041 0.0 -2.68644 -5.6476 -5.0846 0.0 20.2961 0.0 27.1384 16.46656 -18.0513 0.0 -38.027702 0.0 
  5.777739868164063 7.037230224609375 9.480869750976563 -110.035 79.4891 1566.29 3.16785 -6.2073 1.94831 11.5829 -1.49684 4.52492 -53.9959 34.9892 422.79 167.446 -82.952 -201.948 -108.8757 -7.52228 -9.55131 24.1701 24.494 -25.5454 0.0 16.5069 0.0 41.8191 -4.464 28.5056 0.0 0.0 0.0 0.0 0.0 0.0 113.9987 -5.01739 -12.3236 33.4692 -3.86348 -20.281 0.0 95.6175 0.0 -52.42 -17.8639 6.74763 0.0 0.0 0.0 0.0 0.0 0.0 1.93455 -4.70703 7.3066 0.0 7.27364 0.0 -12.2781 -2.7164993 15.4659 0.0 -28.966099 0.0 -2.59057 -5.45405 -5.02021 0.0 20.1259 0.0 27.3923 16.30206 -18.3722 0.0 -38.003403 0.0 
  5.7814501953125 7.031699829101562 9.481229858398438 -109.962 79.4105 1566.65 3.10375 -6.27628 1.86263 11.666 -1.50131 4.44784 -53.9373 35.3669 422.698 165.219 -82.8891 -204.158 -108.895905 -7.63492 -9.51926 24.3171 24.5678 -26.1089 0.0 16.6309 0.0 41.5158 -4.19116 28.9486 0.0 0.0 0.0 0.0 0.0 0.0 114.0591 -5.01336 -12.271 33.379 -3.79653 -20.2667 0.0 95.56 0.0 -52.7079 -17.2452 5.92242 0.0 0.0 0.0 0.0 0.0 0.0 1.96735 -4.7864 7.04915 0.0 7.29143 0.0 -12.3219 -2.6889992 15.3329 0.0 -29.028 0.0 -2.50133 -5.32717 -4.91699 0.0 20.0313 0.0 27.6753 16.15979 -18.6521 0.0 -38.0194 0.0 
  5.7857598876953125 7.025980224609375 9.48156005859375 -109.741 79.3625 1566.82 3.08164 -6.31334 1.82404 11.6717 -1.47578 4.40856 -53.7878 35.8141 422.493 162.958 -82.8235 -206.425 -108.9491 -7.72459 -9.31485 24.6504 24.5927 -26.7387 0.0 16.7628 0.0 41.4264 -3.71163 29.0565 0.0 0.0 0.0 0.0 0.0 0.0 114.1042 -5.02089 -12.2928 33.4208 -3.76311 -20.1727 0.0 95.5596 0.0 -53.015 -17.1166 5.79155 0.0 0.0 0.0 0.0 0.0 0.0 1.98994 -4.81431 6.86364 0.0 7.30453 0.0 -12.3573 -2.6646996 15.1811 0.0 -28.9771 0.0 -2.43157 -5.19969 -4.82159 0.0 19.9753 0.0 27.8909 16.100811 -18.9332 0.0 -38.206398 0.0 
  5.78948974609375 7.021610107421875 9.48197998046875 -109.643 79.3183 1567.1 3.05834 -6.34313 1.83037 11.6722 -1.41601 4.41098 -53.6184 36.1875 422.252 161.631 -82.7214 -207.851 -108.9421 -7.72225 -9.64918 24.6492 24.7469 -26.6768 0.0 17.0008 0.0 41.4881 -3.62864 29.5278 0.0 0.0 0.0 0.0 0.0 0.0 114.1521 -5.09183 -12.2085 33.5184 -3.77186 -20.0486 0.0 95.5862 0.0 -53.3178 -17.0804 5.66175 0.0 0.0 0.0 0.0 0.0 0.0 2.01034 -4.89111 6.84587 0.0 7.36793 0.0 -12.3646 -2.6012993 14.8886 0.0 -28.956501 0.0 -2.41419 -5.14611 -4.89701 0.0 20.0413 0.0 28.0953 16.03283 -19.0053 0.0 -38.0793 0.0 
  5.793839721679688 7.017789916992188 9.48219970703125 -109.492 79.2805 1567.29 3.05976 -6.34742 1.86029 11.6802 -1.31394 4.42771 -53.4766 36.4637 422.002 161.356 -82.5924 -208.247 -108.934296 -7.6251 -9.85635 24.6609 24.6896 -26.6007 0.0 17.257 0.0 41.6935 -3.55062 29.2257 0.0 0.0 0.0 0.0 0.0 0.0 114.1502 -5.211 -12.1207 33.6964 -3.75888 -19.835 0.0 95.5976 0.0 -53.3056 -17.0854 5.76339 0.0 0.0 0.0 0.0 0.0 0.0 2.01684 -4.94044 6.73693 0.0 7.4031 0.0 -12.3607 -2.5615997 14.7256 0.0 -28.9751 0.0 -2.42626 -5.10826 -5.09618 0.0 20.1267 0.0 28.2393 16.0681 -19.0062 0.0 -38.077 0.0 
  5.797210083007813 7.015689697265625 9.482379760742187 -109.287 79.2518 1567.33 3.05898 -6.29683 1.92021 11.7268 -1.22916 4.47755 -53.3531 36.6865 421.771 161.127 -82.5565 -208.547 -108.9448 -7.65656 -9.86497 24.7731 24.713 -26.6184 0.0 17.3289 0.0 41.8508 -3.58667 28.877 0.0 0.0 0.0 0.0 0.0 0.0 114.1648 -5.24371 -12.1377 33.8703 -3.78149 -19.4746 0.0 95.7115 0.0 -53.1399 -17.4392 5.83677 0.0 0.0 0.0 0.0 0.0 0.0 2.0382 -4.97616 6.7986 0.0 7.44984 0.0 -12.3448 -2.5214996 14.5039 0.0 -28.9817 0.0 -2.44183 -5.13763 -5.21898 0.0 20.2907 0.0 28.4105 16.15574 -18.9977 0.0 -38.2614 0.0 
  5.800819702148438 7.012349853515625 9.482310180664063 -108.851 79.2339 1567.19 3.05173 -6.24431 1.96015 11.8218 -1.09382 4.5008 -53.1929 36.924 421.466 160.744 -82.6159 -208.866 -108.9952 -7.63909 -9.71906 24.9968 24.6392 -26.3939 0.0 17.3165 0.0 41.9271 -3.57651 29.3699 0.0 0.0 0.0 0.0 0.0 0.0 114.1667 -5.32346 -12.1872 34.0299 -3.7424 -19.1363 0.0 95.7482 0.0 -53.0862 -17.5636 5.91315 0.0 0.0 0.0 0.0 0.0 0.0 2.07655 -4.98112 6.8116 0.0 7.51892 0.0 -12.3266 -2.5072994 14.2727 0.0 -28.971199 0.0 -2.4587 -5.07869 -5.50845 0.0 20.4094 0.0 28.4647 16.27762 -18.8809 0.0 -38.343597 0.0 
  5.804099731445312 7.010130004882813 9.482440185546874 -108.652 79.1946 1567.22 3.0781 -6.20821 1.99928 11.8748 -0.987948 4.52186 -53.1151 37.0982 421.278 160.697 -82.6075 -208.967 -109.047 -7.67698 -9.68111 25.1655 24.6203 -25.9372 0.0 17.3034 0.0 42.2052 -3.714 29.499 0.0 0.0 0.0 0.0 0.0 0.0 114.1716 -5.36792 -12.2066 34.1636 -3.69346 -18.9943 0.0 95.721 0.0 -53.2032 -17.63 6.00822 0.0 0.0 0.0 0.0 0.0 0.0 2.1039 -5.03557 6.75403 0.0 7.5933 0.0 -12.3224 -2.5042 14.1523 0.0 -28.9963 0.0 -2.46559 -5.10463 -5.64829 0.0 20.5627 0.0 28.5517 16.3681 -18.8491 0.0 -38.3806 0.0 
  5.807529907226563 7.007000122070313 9.48260986328125 -108.52 79.1618 1567.29 3.09818 -6.19123 2.0175 11.8841 -0.897374 4.52484 -52.9942 37.2397 421.155 160.239 -82.5311 -209.493 -109.0731 -7.7242 -9.6519 25.3771 24.6479 -25.3252 0.0 16.6732 0.0 42.5259 -2.49038 28.7832 0.0 0.0 0.0 0.0 0.0 0.0 114.231 -5.34939 -12.2476 34.2221 -3.66076 -18.8347 0.0 95.6356 0.0 -53.2003 -17.4807 5.88192 0.0 0.0 0.0 0.0 0.0 0.0 2.11812 -5.08779 6.67761 0.0 7.66991 0.0 -12.3121 -2.5091 14.0776 0.0 -29.013699 0.0 -2.48224 -5.12643 -5.79236 0.0 20.6906 0.0 28.6626 16.46707 -18.8166 0.0 -38.469902 0.0 
